<mxfile host="app.diagrams.net" agent="Mozilla/5.0 (Windows NT 10.0; Win64; x64) AppleWebKit/537.36 (KHTML, like Gecko) Chrome/138.0.0.0 Safari/537.36" version="28.1.1">
  <diagram id="hKt4ZynpW3wMYE2DFYAN" name="Page-1">
    <mxGraphModel dx="1489" dy="753" grid="1" gridSize="10" guides="1" tooltips="1" connect="1" arrows="1" fold="1" page="1" pageScale="1" pageWidth="1169" pageHeight="827" math="0" shadow="0">
      <root>
        <mxCell id="0" />
        <mxCell id="1" parent="0" />
        <mxCell id="title" value="Lecture Hall Allocation &amp; Recommendation Platform - System Architecture" style="text;html=1;strokeColor=none;fillColor=none;align=center;verticalAlign=middle;whiteSpace=wrap;rounded=0;fontSize=18;fontStyle=1;fontColor=#1f497d;" parent="1" vertex="1">
          <mxGeometry x="200" y="20" width="769" height="30" as="geometry" />
        </mxCell>
        <mxCell id="presentation_layer" value="" style="rounded=1;whiteSpace=wrap;html=1;fillColor=#e1f5fe;strokeColor=#01579b;strokeWidth=2;" parent="1" vertex="1">
          <mxGeometry x="80" y="80" width="1009" height="120" as="geometry" />
        </mxCell>
        <mxCell id="presentation_title" value="PRESENTATION LAYER" style="text;html=1;strokeColor=none;fillColor=none;align=left;verticalAlign=top;whiteSpace=wrap;rounded=0;fontSize=14;fontStyle=1;fontColor=#01579b;" parent="1" vertex="1">
          <mxGeometry x="95" y="90" width="200" height="20" as="geometry" />
        </mxCell>
        <mxCell id="web_browser" value="Web Browser&#xa;Interface" style="rounded=1;whiteSpace=wrap;html=1;fillColor=#ffffff;strokeColor=#666666;fontSize=12;fontStyle=1;" parent="1" vertex="1">
          <mxGeometry x="120" y="125" width="120" height="60" as="geometry" />
        </mxCell>
        <mxCell id="html_templates" value="HTML Templates&#xa;• index.html&#xa;• dashboard.html&#xa;• visualizations.html" style="rounded=1;whiteSpace=wrap;html=1;fillColor=#f3e5f5;strokeColor=#7b1fa2;fontSize=10;" parent="1" vertex="1">
          <mxGeometry x="280" y="125" width="140" height="60" as="geometry" />
        </mxCell>
        <mxCell id="css_bootstrap" value="CSS Framework&#xa;• Bootstrap 4/5&#xa;• Custom Styles&#xa;• Responsive Design" style="rounded=1;whiteSpace=wrap;html=1;fillColor=#e8f5e8;strokeColor=#4caf50;fontSize=10;" parent="1" vertex="1">
          <mxGeometry x="460" y="125" width="140" height="60" as="geometry" />
        </mxCell>
        <mxCell id="javascript_ajax" value="JavaScript/AJAX&#xa;• Form Handling&#xa;• API Calls&#xa;• Dynamic Updates" style="rounded=1;whiteSpace=wrap;html=1;fillColor=#fff3e0;strokeColor=#ff9800;fontSize=10;" parent="1" vertex="1">
          <mxGeometry x="640" y="125" width="140" height="60" as="geometry" />
        </mxCell>
        <mxCell id="dashboards" value="Interactive Dashboards&#xa;• Plotly Charts&#xa;• Usage Analytics&#xa;• Real-time Updates" style="rounded=1;whiteSpace=wrap;html=1;fillColor=#fce4ec;strokeColor=#e91e63;fontSize=10;" parent="1" vertex="1">
          <mxGeometry x="820" y="125" width="140" height="60" as="geometry" />
        </mxCell>
        <mxCell id="application_layer" value="" style="rounded=1;whiteSpace=wrap;html=1;fillColor=#f3e5f5;strokeColor=#7b1fa2;strokeWidth=2;" parent="1" vertex="1">
          <mxGeometry x="80" y="230" width="1009" height="180" as="geometry" />
        </mxCell>
        <mxCell id="application_title" value="APPLICATION LAYER (Flask Backend)" style="text;html=1;strokeColor=none;fillColor=none;align=left;verticalAlign=top;whiteSpace=wrap;rounded=0;fontSize=14;fontStyle=1;fontColor=#7b1fa2;" parent="1" vertex="1">
          <mxGeometry x="95" y="230" width="250" height="20" as="geometry" />
        </mxCell>
        <mxCell id="flask_core" value="Flask Web Framework&#xa;• Routing&#xa;• Request Handling&#xa;• Response Generation" style="rounded=1;whiteSpace=wrap;html=1;fillColor=#ffffff;strokeColor=#7b1fa2;fontSize=11;fontStyle=1;" parent="1" vertex="1">
          <mxGeometry x="120" y="270" width="140" height="70" as="geometry" />
        </mxCell>
        <mxCell id="api_endpoints" value="REST API Endpoints&#xa;• /predict (POST)&#xa;• /recommend (POST)&#xa;• /visualizations&#xa;• /dashboard" style="rounded=1;whiteSpace=wrap;html=1;fillColor=#e3f2fd;strokeColor=#1976d2;fontSize=10;" parent="1" vertex="1">
          <mxGeometry x="300" y="270" width="140" height="70" as="geometry" />
        </mxCell>
        <mxCell id="business_logic" value="Business Logic&#xa;• Input Validation&#xa;• Feature Engineering&#xa;• Result Processing" style="rounded=1;whiteSpace=wrap;html=1;fillColor=#f1f8e9;strokeColor=#689f38;fontSize=10;" parent="1" vertex="1">
          <mxGeometry x="480" y="270" width="140" height="70" as="geometry" />
        </mxCell>
        <mxCell id="file_server" value="File Server&#xa;• Static Files&#xa;• Visualizations&#xa;• Model Artifacts" style="rounded=1;whiteSpace=wrap;html=1;fillColor=#fff8e1;strokeColor=#ffa000;fontSize=10;" parent="1" vertex="1">
          <mxGeometry x="660" y="270" width="140" height="70" as="geometry" />
        </mxCell>
        <mxCell id="session_mgmt" value="Session Management&#xa;• User State&#xa;• Form Data&#xa;• Response Caching" style="rounded=1;whiteSpace=wrap;html=1;fillColor=#fce4ec;strokeColor=#c2185b;fontSize=10;" parent="1" vertex="1">
          <mxGeometry x="840" y="270" width="140" height="70" as="geometry" />
        </mxCell>
        <mxCell id="web_interface_module" value="web_interface.py&#xa;Main Flask Application" style="rounded=1;whiteSpace=wrap;html=1;fillColor=#ffebee;strokeColor=#d32f2f;fontSize=11;fontStyle=1;" parent="1" vertex="1">
          <mxGeometry x="480" y="355" width="160" height="40" as="geometry" />
        </mxCell>
        <mxCell id="service_layer" value="" style="rounded=1;whiteSpace=wrap;html=1;fillColor=#e8f5e8;strokeColor=#4caf50;strokeWidth=2;" parent="1" vertex="1">
          <mxGeometry x="80" y="440" width="1009" height="120" as="geometry" />
        </mxCell>
        <mxCell id="service_title" value="SERVICE LAYER (Machine Learning Components)" style="text;html=1;strokeColor=none;fillColor=none;align=left;verticalAlign=top;whiteSpace=wrap;rounded=0;fontSize=14;fontStyle=1;fontColor=#4caf50;" parent="1" vertex="1">
          <mxGeometry x="95" y="450" width="350" height="20" as="geometry" />
        </mxCell>
        <mxCell id="prediction_service" value="Allocation Prediction&#xa;• Basic Model&#xa;• Improved Model&#xa;• Feature Processing" style="rounded=1;whiteSpace=wrap;html=1;fillColor=#ffffff;strokeColor=#4caf50;fontSize=10;" parent="1" vertex="1">
          <mxGeometry x="120" y="480" width="160" height="60" as="geometry" />
        </mxCell>
        <mxCell id="recommendation_engine" value="Recommendation Engine&#xa;• Similarity Calculation&#xa;• Hall Scoring&#xa;• Availability Analysis" style="rounded=1;whiteSpace=wrap;html=1;fillColor=#e3f2fd;strokeColor=#1976d2;fontSize=10;" parent="1" vertex="1">
          <mxGeometry x="320" y="480" width="160" height="60" as="geometry" />
        </mxCell>
        <mxCell id="analytics_engine" value="Analytics Engine&#xa;• Utilization Analysis&#xa;• Pattern Recognition&#xa;• Statistical Insights" style="rounded=1;whiteSpace=wrap;html=1;fillColor=#fff3e0;strokeColor=#f57c00;fontSize=10;" parent="1" vertex="1">
          <mxGeometry x="520" y="480" width="160" height="60" as="geometry" />
        </mxCell>
        <mxCell id="viz_generator" value="Visualization Generator&#xa;• Static Plots (PNG)&#xa;• Interactive Charts (HTML)&#xa;• Dashboard Creation" style="rounded=1;whiteSpace=wrap;html=1;fillColor=#f3e5f5;strokeColor=#9c27b0;fontSize=10;" parent="1" vertex="1">
          <mxGeometry x="720" y="480" width="160" height="60" as="geometry" />
        </mxCell>
        <mxCell id="cli_tools" value="CLI Tools&#xa;• predict_allocation.py&#xa;• recommend_hall.py&#xa;• Batch Processing" style="rounded=1;whiteSpace=wrap;html=1;fillColor=#ffebee;strokeColor=#e53935;fontSize=10;" parent="1" vertex="1">
          <mxGeometry x="920" y="480" width="140" height="60" as="geometry" />
        </mxCell>
        <mxCell id="data_layer" value="" style="rounded=1;whiteSpace=wrap;html=1;fillColor=#fff3e0;strokeColor=#f57c00;strokeWidth=2;" parent="1" vertex="1">
          <mxGeometry x="80" y="590" width="1009" height="140" as="geometry" />
        </mxCell>
        <mxCell id="data_title" value="DATA LAYER" style="text;html=1;strokeColor=none;fillColor=none;align=left;verticalAlign=top;whiteSpace=wrap;rounded=0;fontSize=14;fontStyle=1;fontColor=#f57c00;" parent="1" vertex="1">
          <mxGeometry x="95" y="600" width="150" height="20" as="geometry" />
        </mxCell>
        <mxCell id="raw_data" value="Raw Datasets&#xa;• lecture_hall_allocations_final.csv&#xa;• lecture_hall_allocations_simple.csv&#xa;• Historical Records" style="rounded=1;whiteSpace=wrap;html=1;fillColor=#ffffff;strokeColor=#f57c00;fontSize=10;" parent="1" vertex="1">
          <mxGeometry x="120" y="630" width="180" height="80" as="geometry" />
        </mxCell>
        <mxCell id="trained_models" value="Trained Models&#xa;• lecture_hall_allocation_model.pkl&#xa;• improved_lecture_hall_model.pkl&#xa;• lecture_hall_recommender.pkl" style="rounded=1;whiteSpace=wrap;html=1;fillColor=#e8f5e8;strokeColor=#4caf50;fontSize=10;" parent="1" vertex="1">
          <mxGeometry x="340" y="630" width="200" height="80" as="geometry" />
        </mxCell>
        <mxCell id="processed_data" value="Processed Data&#xa;• Feature Engineered Data&#xa;• Similarity Matrices&#xa;• Aggregated Statistics" style="rounded=1;whiteSpace=wrap;html=1;fillColor=#f3e5f5;strokeColor=#9c27b0;fontSize=10;" parent="1" vertex="1">
          <mxGeometry x="580" y="630" width="160" height="80" as="geometry" />
        </mxCell>
        <mxCell id="viz_files" value="Visualization Files&#xa;• Static Plots (PNG)&#xa;• Interactive Dashboards (HTML)&#xa;• Analytics Reports" style="rounded=1;whiteSpace=wrap;html=1;fillColor=#e3f2fd;strokeColor=#1976d2;fontSize=10;" parent="1" vertex="1">
          <mxGeometry x="780" y="630" width="160" height="80" as="geometry" />
        </mxCell>
        <mxCell id="config" value="Configuration&#xa;• requirements.txt&#xa;• Model Parameters&#xa;• System Settings" style="rounded=1;whiteSpace=wrap;html=1;fillColor=#ffebee;strokeColor=#e53935;fontSize=10;" parent="1" vertex="1">
          <mxGeometry x="950" y="630" width="140" height="80" as="geometry" />
        </mxCell>
        <mxCell id="external_layer" value="" style="rounded=1;whiteSpace=wrap;html=1;fillColor=#fafafa;strokeColor=#616161;strokeWidth=2;strokeDashArray=5 5;" parent="1" vertex="1">
          <mxGeometry x="80" y="760" width="1009" height="60" as="geometry" />
        </mxCell>
        <mxCell id="external_title" value="EXTERNAL LIBRARIES &amp; FRAMEWORKS" style="text;html=1;strokeColor=none;fillColor=none;align=left;verticalAlign=top;whiteSpace=wrap;rounded=0;fontSize=14;fontStyle=1;fontColor=#616161;" parent="1" vertex="1">
          <mxGeometry x="95" y="770" width="300" height="20" as="geometry" />
        </mxCell>
        <mxCell id="python_libs" value="Python: pandas, numpy, scikit-learn" style="rounded=1;whiteSpace=wrap;html=1;fillColor=#ffffff;strokeColor=#616161;fontSize=10;" parent="1" vertex="1">
          <mxGeometry x="120" y="795" width="180" height="20" as="geometry" />
        </mxCell>
        <mxCell id="ml_libs" value="ML: torch, imblearn, joblib" style="rounded=1;whiteSpace=wrap;html=1;fillColor=#ffffff;strokeColor=#616161;fontSize=10;" parent="1" vertex="1">
          <mxGeometry x="320" y="795" width="140" height="20" as="geometry" />
        </mxCell>
        <mxCell id="viz_libs" value="Viz: matplotlib, seaborn, plotly" style="rounded=1;whiteSpace=wrap;html=1;fillColor=#ffffff;strokeColor=#616161;fontSize=10;" parent="1" vertex="1">
          <mxGeometry x="480" y="795" width="160" height="20" as="geometry" />
        </mxCell>
        <mxCell id="web_libs" value="Web: Flask, Bootstrap, jQuery" style="rounded=1;whiteSpace=wrap;html=1;fillColor=#ffffff;strokeColor=#616161;fontSize=10;" parent="1" vertex="1">
          <mxGeometry x="660" y="795" width="140" height="20" as="geometry" />
        </mxCell>
        <mxCell id="os_libs" value="System: os, filesystem operations" style="rounded=1;whiteSpace=wrap;html=1;fillColor=#ffffff;strokeColor=#616161;fontSize=10;" parent="1" vertex="1">
          <mxGeometry x="820" y="795" width="160" height="20" as="geometry" />
        </mxCell>
        <mxCell id="p2a_arrow1" style="endArrow=classic;html=1;rounded=0;strokeColor=#666666;strokeWidth=2;" parent="1" edge="1">
          <mxGeometry width="50" height="50" relative="1" as="geometry">
            <mxPoint x="180" y="200" as="sourcePoint" />
            <mxPoint x="180" y="270" as="targetPoint" />
          </mxGeometry>
        </mxCell>
        <mxCell id="p2a_arrow2" style="endArrow=classic;html=1;rounded=0;strokeColor=#666666;strokeWidth=2;" parent="1" edge="1">
          <mxGeometry width="50" height="50" relative="1" as="geometry">
            <mxPoint x="370" y="200" as="sourcePoint" />
            <mxPoint x="370" y="270" as="targetPoint" />
          </mxGeometry>
        </mxCell>
        <mxCell id="p2a_arrow3" style="endArrow=classic;html=1;rounded=0;strokeColor=#666666;strokeWidth=2;" parent="1" edge="1">
          <mxGeometry width="50" height="50" relative="1" as="geometry">
            <mxPoint x="710" y="200" as="sourcePoint" />
            <mxPoint x="710" y="270" as="targetPoint" />
          </mxGeometry>
        </mxCell>
        <mxCell id="p2a_arrow4" style="endArrow=classic;html=1;rounded=0;strokeColor=#666666;strokeWidth=2;" parent="1" edge="1">
          <mxGeometry width="50" height="50" relative="1" as="geometry">
            <mxPoint x="890" y="200" as="sourcePoint" />
            <mxPoint x="890" y="270" as="targetPoint" />
          </mxGeometry>
        </mxCell>
        <mxCell id="a2s_arrow1" style="endArrow=classic;html=1;rounded=0;strokeColor=#666666;strokeWidth=2;" parent="1" edge="1">
          <mxGeometry width="50" height="50" relative="1" as="geometry">
            <mxPoint x="200" y="410" as="sourcePoint" />
            <mxPoint x="200" y="480" as="targetPoint" />
          </mxGeometry>
        </mxCell>
        <mxCell id="a2s_arrow2" style="endArrow=classic;html=1;rounded=0;strokeColor=#666666;strokeWidth=2;" parent="1" edge="1">
          <mxGeometry width="50" height="50" relative="1" as="geometry">
            <mxPoint x="400" y="410" as="sourcePoint" />
            <mxPoint x="400" y="480" as="targetPoint" />
          </mxGeometry>
        </mxCell>
        <mxCell id="a2s_arrow3" style="endArrow=classic;html=1;rounded=0;strokeColor=#666666;strokeWidth=2;" parent="1" edge="1">
          <mxGeometry width="50" height="50" relative="1" as="geometry">
            <mxPoint x="600" y="410" as="sourcePoint" />
            <mxPoint x="600" y="480" as="targetPoint" />
          </mxGeometry>
        </mxCell>
        <mxCell id="a2s_arrow4" style="endArrow=classic;html=1;rounded=0;strokeColor=#666666;strokeWidth=2;" parent="1" edge="1">
          <mxGeometry width="50" height="50" relative="1" as="geometry">
            <mxPoint x="800" y="410" as="sourcePoint" />
            <mxPoint x="800" y="480" as="targetPoint" />
          </mxGeometry>
        </mxCell>
        <mxCell id="s2d_arrow1" style="endArrow=classic;html=1;rounded=0;strokeColor=#666666;strokeWidth=2;" parent="1" edge="1">
          <mxGeometry width="50" height="50" relative="1" as="geometry">
            <mxPoint x="200" y="560" as="sourcePoint" />
            <mxPoint x="200" y="630" as="targetPoint" />
          </mxGeometry>
        </mxCell>
        <mxCell id="s2d_arrow2" style="endArrow=classic;html=1;rounded=0;strokeColor=#666666;strokeWidth=2;" parent="1" edge="1">
          <mxGeometry width="50" height="50" relative="1" as="geometry">
            <mxPoint x="440" y="560" as="sourcePoint" />
            <mxPoint x="440" y="630" as="targetPoint" />
          </mxGeometry>
        </mxCell>
        <mxCell id="s2d_arrow3" style="endArrow=classic;html=1;rounded=0;strokeColor=#666666;strokeWidth=2;" parent="1" edge="1">
          <mxGeometry width="50" height="50" relative="1" as="geometry">
            <mxPoint x="660" y="560" as="sourcePoint" />
            <mxPoint x="660" y="630" as="targetPoint" />
          </mxGeometry>
        </mxCell>
        <mxCell id="s2d_arrow4" style="endArrow=classic;html=1;rounded=0;strokeColor=#666666;strokeWidth=2;" parent="1" edge="1">
          <mxGeometry width="50" height="50" relative="1" as="geometry">
            <mxPoint x="860" y="560" as="sourcePoint" />
            <mxPoint x="860" y="630" as="targetPoint" />
          </mxGeometry>
        </mxCell>
        <mxCell id="d2e_arrow" style="endArrow=classic;html=1;rounded=0;strokeColor=#666666;strokeWidth=2;strokeDashArray=3 3;" parent="1" edge="1">
          <mxGeometry width="50" height="50" relative="1" as="geometry">
            <mxPoint x="584" y="730" as="sourcePoint" />
            <mxPoint x="584" y="760" as="targetPoint" />
          </mxGeometry>
        </mxCell>
        <mxCell id="horizontal_arrow1" style="endArrow=classic;startArrow=classic;html=1;rounded=0;strokeColor=#cccccc;strokeWidth=1;entryX=0.177;entryY=1.01;entryDx=0;entryDy=0;entryPerimeter=0;" parent="1" edge="1" target="dashboards">
          <mxGeometry width="50" height="50" relative="1" as="geometry">
            <mxPoint x="230" y="190" as="sourcePoint" />
            <mxPoint x="810" y="155" as="targetPoint" />
            <Array as="points">
              <mxPoint x="230" y="220" />
              <mxPoint x="850" y="220" />
            </Array>
          </mxGeometry>
        </mxCell>
        <mxCell id="horizontal_arrow2" style="endArrow=classic;startArrow=classic;html=1;rounded=0;strokeColor=#cccccc;strokeWidth=1;exitX=0.857;exitY=1;exitDx=0;exitDy=0;exitPerimeter=0;" parent="1" edge="1" target="session_mgmt" source="flask_core">
          <mxGeometry width="50" height="50" relative="1" as="geometry">
            <mxPoint x="260" y="320" as="sourcePoint" />
            <mxPoint x="830" y="320" as="targetPoint" />
            <Array as="points">
              <mxPoint x="240" y="400" />
              <mxPoint x="910" y="400" />
            </Array>
          </mxGeometry>
        </mxCell>
        <mxCell id="horizontal_arrow3" style="endArrow=classic;startArrow=classic;html=1;rounded=0;strokeColor=#cccccc;strokeWidth=1;" parent="1" edge="1">
          <mxGeometry width="50" height="50" relative="1" as="geometry">
            <mxPoint x="280" y="510" as="sourcePoint" />
            <mxPoint x="870" y="510" as="targetPoint" />
          </mxGeometry>
        </mxCell>
        <mxCell id="legend_box" value="" style="rounded=1;whiteSpace=wrap;html=1;fillColor=#f5f5f5;strokeColor=#666666;strokeWidth=1;" parent="1" vertex="1">
          <mxGeometry x="20" y="270" width="40" height="200" as="geometry" />
        </mxCell>
        <mxCell id="legend_title" value="LEGEND" style="text;html=1;strokeColor=none;fillColor=none;align=center;verticalAlign=middle;whiteSpace=wrap;rounded=0;fontSize=10;fontStyle=1;rotation=0;" parent="1" vertex="1">
          <mxGeometry x="25" y="280" width="30" height="20" as="geometry" />
        </mxCell>
        <mxCell id="legend_data_flow" value="" style="endArrow=classic;html=1;rounded=0;strokeColor=#666666;strokeWidth=2;" parent="1" edge="1">
          <mxGeometry width="50" height="50" relative="1" as="geometry">
            <mxPoint x="25" y="320" as="sourcePoint" />
            <mxPoint x="35" y="300" as="targetPoint" />
          </mxGeometry>
        </mxCell>
        <mxCell id="legend_data_text" value="Data Flow" style="text;html=1;strokeColor=none;fillColor=none;align=center;verticalAlign=middle;whiteSpace=wrap;rounded=0;fontSize=8;" parent="1" vertex="1">
          <mxGeometry x="20" y="325" width="40" height="15" as="geometry" />
        </mxCell>
        <mxCell id="legend_interaction" value="" style="endArrow=classic;startArrow=classic;html=1;rounded=0;strokeColor=#cccccc;strokeWidth=1;" parent="1" edge="1">
          <mxGeometry width="50" height="50" relative="1" as="geometry">
            <mxPoint x="25" y="360" as="sourcePoint" />
            <mxPoint x="35" y="350" as="targetPoint" />
          </mxGeometry>
        </mxCell>
        <mxCell id="legend_interaction_text" value="Inter-layer Communication" style="text;html=1;strokeColor=none;fillColor=none;align=center;verticalAlign=middle;whiteSpace=wrap;rounded=0;fontSize=8;" parent="1" vertex="1">
          <mxGeometry x="15" y="365" width="50" height="25" as="geometry" />
        </mxCell>
        <mxCell id="legend_external" value="" style="endArrow=classic;html=1;rounded=0;strokeColor=#666666;strokeWidth=2;strokeDashArray=3 3;" parent="1" edge="1">
          <mxGeometry width="50" height="50" relative="1" as="geometry">
            <mxPoint x="25" y="410" as="sourcePoint" />
            <mxPoint x="35" y="400" as="targetPoint" />
          </mxGeometry>
        </mxCell>
        <mxCell id="legend_external_text" value="External Dependencies" style="text;html=1;strokeColor=none;fillColor=none;align=center;verticalAlign=middle;whiteSpace=wrap;rounded=0;fontSize=8;" parent="1" vertex="1">
          <mxGeometry x="15" y="415" width="50" height="25" as="geometry" />
        </mxCell>
      </root>
    </mxGraphModel>
  </diagram>
</mxfile>
